<svg preserveAspectRatio="none" width="100%" height="100%" overflow="visible" style="display: block;" viewBox="0 0 18.4615 18.4615" fill="none" xmlns="http://www.w3.org/2000/svg">
<g id="Mask Group">
<mask id="mask0_68_30368" style="mask-type:alpha" maskUnits="userSpaceOnUse" x="0" y="0" width="19" height="19">
<g id="mask-2">
<path id="Vector" d="M7.77308 13.1577C7.76059 13.1904 7.74647 13.2225 7.73077 13.2538C7.34157 14.3554 7.71967 15.5819 8.66154 16.2731C9.26923 16.75 9.38846 16.95 9.32692 17.3962C9.25769 17.7758 9.1139 18.1379 8.90385 18.4615C5.73207 18.3546 2.65121 17.3751 0 15.6308V14.2077C0 13.85 -3.72529e-08 13.5038 0.0384615 13.1577H7.77308ZM18.4231 13.1577C18.4423 13.5038 18.4615 13.85 18.4615 14.2077V15.6269C16.1204 17.169 13.4397 18.1193 10.65 18.3962C10.7457 18.1476 10.8153 17.8898 10.8577 17.6269C11.0615 16.1923 10.1538 15.4846 9.61154 15.0615C9.20235 14.7898 9.02586 14.2777 9.18077 13.8115C9.26983 13.585 9.38469 13.3695 9.52308 13.1692H18.4231V13.1577ZM7.88462 6.76538L9.57692 9.25385L7.97692 11.6115H4.59231L7.88462 6.76538ZM9.23077 0C14.0507 2.04287 17.4682 6.43701 18.2615 11.6115H16L12.6269 6.65C12.4759 6.44825 12.2386 6.32949 11.9865 6.32949C11.7345 6.32949 11.4972 6.44825 11.3462 6.65L10.5115 7.87692L8.52308 4.95385C8.37109 4.75353 8.13414 4.63588 7.88269 4.63588C7.63125 4.63588 7.39429 4.75353 7.24231 4.95385L2.72308 11.6115H0.2C0.99333 6.43701 4.41083 2.04287 9.23077 0ZM11.9885 8.46154L14.1269 11.6115H9.85L11.9885 8.46154Z" fill="var(--fill-0, white)"/>
</g>
</mask>
<g mask="url(#mask0_68_30368)">
<path id="&#240;&#159;&#142;&#168;-Icon-Color" d="M7.77308 13.1577C7.76059 13.1904 7.74647 13.2225 7.73077 13.2538C7.34157 14.3554 7.71967 15.5819 8.66154 16.2731C9.26923 16.75 9.38846 16.95 9.32692 17.3962C9.25769 17.7758 9.1139 18.1379 8.90385 18.4615C5.73207 18.3546 2.65121 17.3751 0 15.6308V14.2077C0 13.85 -3.72529e-08 13.5038 0.0384615 13.1577H7.77308ZM18.4231 13.1577C18.4423 13.5038 18.4615 13.85 18.4615 14.2077V15.6269C16.1204 17.169 13.4397 18.1193 10.65 18.3962C10.7457 18.1476 10.8153 17.8898 10.8577 17.6269C11.0615 16.1923 10.1538 15.4846 9.61154 15.0615C9.20235 14.7898 9.02586 14.2777 9.18077 13.8115C9.26983 13.585 9.38469 13.3695 9.52308 13.1692H18.4231V13.1577ZM7.88462 6.76538L9.57692 9.25385L7.97692 11.6115H4.59231L7.88462 6.76538ZM9.23077 0C14.0507 2.04287 17.4682 6.43701 18.2615 11.6115H16L12.6269 6.65C12.4759 6.44825 12.2386 6.32949 11.9865 6.32949C11.7345 6.32949 11.4972 6.44825 11.3462 6.65L10.5115 7.87692L8.52308 4.95385C8.37109 4.75353 8.13414 4.63588 7.88269 4.63588C7.63125 4.63588 7.39429 4.75353 7.24231 4.95385L2.72308 11.6115H0.2C0.99333 6.43701 4.41083 2.04287 9.23077 0ZM11.9885 8.46154L14.1269 11.6115H9.85L11.9885 8.46154Z" fill="var(--fill-0, #747474)"/>
</g>
</g>
</svg>
