<svg preserveAspectRatio="none" width="100%" height="100%" overflow="visible" style="display: block;" viewBox="0 0 96.25 96.25" fill="none" xmlns="http://www.w3.org/2000/svg">
<path id="Vector" d="M55 96.25H41.25C39.3594 96.25 37.8125 94.7031 37.8125 92.8125V86.2813C34.5469 85.4219 31.4531 84.0469 28.3594 82.5L23.7187 87.1406C22.3437 88.5156 20.2813 88.5156 18.9062 87.1406L9.28125 77.3438C7.90625 75.9687 7.90625 73.9063 9.28125 72.5313L13.9219 67.8906C12.2031 64.9687 11 61.7031 10.1406 58.4375H3.4375C1.54687 58.4375 0 56.8906 0 55V41.25C0 39.3594 1.54687 37.8125 3.4375 37.8125H9.96875C10.8281 34.5469 12.2031 31.4531 13.75 28.3594L9.10938 23.7187C7.73438 22.3437 7.73438 20.2813 9.10938 18.9062L18.9062 9.28125C20.2813 7.90625 22.3437 7.90625 23.7187 9.28125L28.3594 13.9219C31.2813 12.2031 34.5469 11 37.8125 10.1406V3.4375C37.8125 1.54687 39.3594 0 41.25 0H55C56.8906 0 58.4375 1.54687 58.4375 3.4375V9.96875C61.7031 10.8281 64.7969 12.2031 67.8906 13.75L72.5313 9.10938C73.9063 7.73438 75.9687 7.73438 77.3438 9.10938L87.1406 18.7344C88.5156 20.1094 88.5156 22.1719 87.1406 23.5469L82.5 28.3594C84.2188 31.2813 85.4219 34.5469 86.2813 37.8125H92.8125C94.7031 37.8125 96.25 39.3594 96.25 41.25V55C96.25 56.8906 94.7031 58.4375 92.8125 58.4375H86.2813C85.4219 61.7031 84.0469 64.7969 82.5 67.8906L87.1406 72.5313C88.5156 73.9063 88.5156 75.9687 87.1406 77.3438L77.3438 86.9687C75.9687 88.3437 73.9063 88.3437 72.5313 86.9687L67.8906 82.5C64.9687 84.2188 61.7031 85.4219 58.4375 86.2813V92.8125C58.4375 94.7031 56.8906 96.25 55 96.25Z" fill="var(--fill-0, #481A54)"/>
</svg>
