<svg preserveAspectRatio="none" width="100%" height="100%" overflow="visible" style="display: block;" viewBox="0 0 40 28" fill="none" xmlns="http://www.w3.org/2000/svg">
<path id="Vector" fill-rule="evenodd" clip-rule="evenodd" d="M21.7181 0.875888C24.3583 0.875888 26.6622 2.34824 27.8887 4.53432C28.9553 4.05783 30.1352 3.79265 31.3767 3.79265C36.1391 3.79265 40 7.68763 40 12.4925C40 17.2974 36.1391 21.1923 31.3767 21.1923C30.7952 21.1923 30.2272 21.1339 29.6779 21.0231C28.5978 22.9499 26.5387 24.2519 24.176 24.2519C23.187 24.2519 22.2513 24.0237 21.4181 23.6172C20.3232 26.1936 17.7712 28 14.7979 28C11.7008 28 9.06122 26.0405 8.04856 23.2921C7.60562 23.3856 7.14673 23.4349 6.67624 23.4349C2.98898 23.4349 0 20.4145 0 16.6886C0 14.1915 1.34268 12.0114 3.33843 10.8449C2.92745 9.89917 2.69936 8.85594 2.69936 7.75922C2.69936 3.47391 6.17757 0 10.4683 0C12.9874 0 15.226 1.19773 16.6455 3.05384C17.9357 1.70982 19.7316 0.875888 21.7181 0.875888Z" fill="var(--fill-0, #00A1E0)"/>
</svg>
