<svg preserveAspectRatio="none" width="100%" height="100%" overflow="visible" style="display: block;" viewBox="0 0 82.5 82.1562" fill="none" xmlns="http://www.w3.org/2000/svg">
<path id="Vector" d="M76.6562 37.8125C74.9375 37.8125 73.5625 36.6094 73.2187 35.0625C72.3594 30.7656 70.6406 26.6406 68.2344 23.0312C67.375 21.6562 67.5469 19.7656 68.75 18.7344L72.875 14.6094L68.0625 9.79687L63.9375 13.75C62.7344 14.9531 61.0156 15.125 59.6406 14.0938C56.0313 11.6875 51.9063 9.96875 47.6094 9.10938C45.8906 8.76563 44.8594 7.39063 44.8594 5.67188V0H37.9844V5.84375C37.9844 7.5625 36.7812 8.9375 35.2344 9.28125C30.9375 10.1406 26.8125 11.8594 23.2031 14.2656C21.8281 15.125 19.9375 14.9531 18.9062 13.75L14.7813 9.625L9.96875 14.4375L14.0938 18.5625C15.2969 19.7656 15.4687 21.4844 14.4375 22.8594C12.0312 26.4687 10.3125 30.5937 9.45312 34.8906C9.10937 36.6094 7.73438 37.6406 6.01562 37.6406H0V44.5156H5.84375C7.5625 44.5156 8.9375 45.7188 9.28125 47.2656C10.1406 51.5625 11.8594 55.6875 14.2656 59.2969C15.125 60.6719 14.9531 62.5625 13.75 63.5938L9.625 67.7188L14.4375 72.5313L18.5625 68.4062C19.7656 67.2031 21.4844 67.0312 22.8594 68.0625C26.4687 70.4687 30.5937 72.1875 34.8906 73.0469C36.6094 73.3906 37.6406 74.7656 37.6406 76.4844V82.1562H44.5156V76.3125C44.5156 74.5938 45.7188 73.2188 47.2656 72.875C51.5625 72.0156 55.6875 70.2969 59.2969 67.8906C60.6719 67.0312 62.5625 67.2031 63.5938 68.2344L67.7188 72.3594L72.5313 67.5469L68.75 63.9375C67.5469 62.7344 67.375 61.0156 68.4062 59.6406C70.8125 56.0313 72.5313 51.9063 73.3906 47.6094C73.7344 45.8906 75.1094 44.8594 76.8281 44.8594H82.5V37.9844H76.6562V37.8125Z" fill="var(--fill-0, #D17DFE)"/>
</svg>
