<svg preserveAspectRatio="none" width="100%" height="100%" overflow="visible" style="display: block;" viewBox="0 0 14 20" fill="none" xmlns="http://www.w3.org/2000/svg">
<g id="Group">
<path id="Vector" fill-rule="evenodd" clip-rule="evenodd" d="M7.8472 15H6.08923C5.60359 15 5.21024 14.6267 5.21024 14.1667V13.7371C5.21024 11.9937 6.39995 10.4116 8.17067 9.80038C8.70069 9.61746 9.196 9.33912 9.55595 8.92745C11.7393 6.43493 9.719 3.42991 7.10665 3.33574C6.1345 3.30241 5.22431 3.63074 4.52991 4.26492C4.00296 4.74617 3.65532 5.35284 3.5182 6.0166C3.43909 6.39868 3.07343 6.6666 2.66295 6.6666H0.878166C0.334514 6.6666 -0.0685008 6.20493 0.00972885 5.69451C0.231673 4.23908 0.951122 2.90407 2.0916 1.86365C3.4804 0.595304 5.3043 -0.063868 7.24026 0.00488257C10.8894 0.136134 13.8564 2.94907 13.9948 6.40868C14.1113 9.31662 12.254 11.9387 9.37312 12.9329C8.98021 13.0683 8.72618 13.3842 8.72618 13.7371V14.1667C8.72618 14.6267 8.3324 15 7.8472 15" fill="var(--fill-0, #747474)"/>
<path id="Vector_2" fill-rule="evenodd" clip-rule="evenodd" d="M7.25 20H5.75C5.33562 20 5 19.664 5 19.25V17.75C5 17.3356 5.33562 17 5.75 17H7.25C7.664 17 8 17.3356 8 17.75V19.25C8 19.664 7.664 20 7.25 20" fill="var(--fill-0, #747474)"/>
</g>
</svg>
