<svg preserveAspectRatio="none" width="100%" height="100%" overflow="visible" style="display: block;" viewBox="0 0 20 20" fill="none" xmlns="http://www.w3.org/2000/svg">
<path id="Union" d="M2.44238 15.1152C3.79098 15.1154 4.88465 16.209 4.88477 17.5576C4.88477 18.9063 3.79105 19.9999 2.44238 20C1.09361 20 0 18.9064 0 17.5576C0.000117634 16.2089 1.09368 15.1152 2.44238 15.1152ZM10 15.1152C11.3487 15.1152 12.4423 16.2089 12.4424 17.5576C12.4424 18.9064 11.3488 20 10 20C8.65123 20 7.55762 18.9064 7.55762 17.5576C7.55773 16.2089 8.6513 15.1152 10 15.1152ZM17.5576 15.1152C18.9063 15.1152 19.9999 16.2089 20 17.5576C20 18.9064 18.9064 20 17.5576 20C16.2089 19.9999 15.1152 18.9063 15.1152 17.5576C15.1154 16.209 16.209 15.1154 17.5576 15.1152ZM2.44238 7.55762C3.79105 7.55773 4.88477 8.6513 4.88477 10C4.88477 11.3487 3.79105 12.4423 2.44238 12.4424C1.09361 12.4424 0 11.3488 0 10C1.28853e-07 8.65123 1.09361 7.55762 2.44238 7.55762ZM10 7.55762C11.3488 7.55762 12.4424 8.65123 12.4424 10C12.4424 11.3488 11.3488 12.4424 10 12.4424C8.65123 12.4424 7.55762 11.3488 7.55762 10C7.55762 8.65123 8.65123 7.55762 10 7.55762ZM17.5576 7.55762C18.9064 7.55762 20 8.65123 20 10C20 11.3488 18.9064 12.4424 17.5576 12.4424C16.2089 12.4423 15.1152 11.3487 15.1152 10C15.1152 8.6513 16.2089 7.55773 17.5576 7.55762ZM2.44238 0C3.79105 0.000117376 4.88477 1.09368 4.88477 2.44238C4.88465 3.79098 3.79098 4.88465 2.44238 4.88477C1.09368 4.88477 0.000117376 3.79105 0 2.44238C0 1.09361 1.09361 0 2.44238 0ZM10 0C11.3488 0 12.4424 1.09361 12.4424 2.44238C12.4423 3.79105 11.3487 4.88477 10 4.88477C8.6513 4.88477 7.55773 3.79105 7.55762 2.44238C7.55762 1.09361 8.65123 1.28851e-07 10 0ZM17.5576 0C18.9064 0 20 1.09361 20 2.44238C19.9999 3.79105 18.9063 4.88477 17.5576 4.88477C16.209 4.88465 15.1154 3.79098 15.1152 2.44238C15.1152 1.09368 16.2089 0.000117633 17.5576 0Z" fill="var(--fill-0, #747474)"/>
</svg>
