<svg preserveAspectRatio="none" width="100%" height="100%" overflow="visible" style="display: block;" viewBox="0 0 15.9857 13.5505" fill="none" xmlns="http://www.w3.org/2000/svg">
<path id="Icon" fill-rule="evenodd" clip-rule="evenodd" d="M15.8016 11.8567L8.75543 0.461948C8.3862 -0.153983 7.5862 -0.153983 7.21697 0.461948L0.170814 11.8567C-0.259955 12.565 0.170814 13.5505 0.940045 13.5505H15.0324C15.8016 13.5505 16.2631 12.565 15.8016 11.8567ZM7.98619 11.0865C7.46311 11.0865 7.06311 10.6861 7.06311 10.1626C7.06311 9.63901 7.46311 9.23866 7.98619 9.23866C8.50926 9.23866 8.90926 9.63901 8.90926 10.1626C8.90926 10.6861 8.50926 11.0865 7.98619 11.0865ZM8.90926 8.31493C8.90926 8.49971 8.78619 8.6229 8.60157 8.6229H7.3708C7.18619 8.6229 7.06311 8.49971 7.06311 8.31493V4.31138C7.06311 4.1266 7.18619 4.00342 7.3708 4.00342H8.60157C8.78619 4.00342 8.90926 4.1266 8.90926 4.31138V8.31493Z" fill="var(--fill-0, #DD7A01)"/>
</svg>
