<svg preserveAspectRatio="none" width="100%" height="100%" overflow="visible" style="display: block;" viewBox="0 0 29.5389 28.4312" fill="none" xmlns="http://www.w3.org/2000/svg">
<g id="Icon">
<path d="M29.4834 21.0553C29.4834 22.5262 28.8998 23.9368 27.8609 24.9768C26.822 26.0168 25.413 26.6011 23.9437 26.6011H7.5709C7.63298 26.2949 7.66391 25.9831 7.66323 25.6706C7.66363 25.3623 7.6327 25.0546 7.5709 24.7525H23.9561C24.9355 24.7525 25.8749 24.363 26.5675 23.6696C27.2601 22.9763 27.6492 22.0359 27.6492 21.0553C27.6492 20.0748 27.2601 19.1344 26.5675 18.4411C25.8749 17.7477 24.9355 17.3582 23.9561 17.3582H5.53968C4.07047 17.3582 2.66143 16.7739 1.62254 15.7339C0.583644 14.6938 0 13.2833 0 11.8124C0 10.3416 0.583644 8.93103 1.62254 7.891C2.66143 6.85097 4.07047 6.26669 5.53968 6.26669H18.0163C18.1551 6.90307 18.3614 7.52279 18.6318 8.11527H5.53968C4.56021 8.11527 3.62085 8.50479 2.92825 9.19815C2.23566 9.8915 1.84656 10.8319 1.84656 11.8124C1.84656 12.793 2.23566 13.7334 2.92825 14.4267C3.62085 15.1201 4.56021 15.5096 5.53968 15.5096H23.9561C24.7035 15.5087 25.4431 15.6618 26.1288 15.9594C26.8982 16.2839 27.5812 16.784 28.1231 17.4198C28.9993 18.428 29.4824 19.719 29.4834 21.0553Z" fill="#747474"/>
<path d="M2.76369 28.4312C4.29003 28.4312 5.52737 27.1925 5.52737 25.6645C5.52737 24.1365 4.29003 22.8978 2.76369 22.8978C1.23734 22.8978 0 24.1365 0 25.6645C0 27.1925 1.23734 28.4312 2.76369 28.4312Z" fill="#747474"/>
<path d="M24.9101 0C24.2996 0.000805737 23.6953 0.122189 23.1317 0.357195C22.5681 0.592201 22.0564 0.936212 21.6259 1.36952C21.1953 1.80283 20.8544 2.31692 20.6226 2.88235C20.3909 3.44777 20.2728 4.05342 20.2752 4.66459C20.2752 7.88728 23.5929 10.8265 24.6147 11.6276C24.7025 11.6965 24.8108 11.734 24.9224 11.734C25.034 11.734 25.1424 11.6965 25.2302 11.6276C26.252 10.8204 29.5388 7.88728 29.5388 4.66459C29.5413 4.05394 29.4234 3.44879 29.192 2.88377C28.9607 2.31875 28.6203 1.80493 28.1904 1.3717C27.7605 0.938471 27.2495 0.594331 26.6867 0.358963C26.1238 0.123595 25.5201 0.00161494 24.9101 0ZM24.9101 6.59328C24.5242 6.59328 24.147 6.47871 23.8261 6.26408C23.5052 6.04944 23.2551 5.74437 23.1074 5.38745C22.9598 5.03052 22.9211 4.63777 22.9964 4.25886C23.0717 3.87995 23.2575 3.5319 23.5304 3.25872C23.8033 2.98555 24.151 2.79951 24.5295 2.72414C24.908 2.64877 25.3003 2.68745 25.6568 2.83529C26.0133 2.98314 26.3181 3.2335 26.5325 3.55473C26.7469 3.87595 26.8613 4.25361 26.8613 4.63994C26.8597 5.1575 26.6536 5.65339 26.288 6.01936C25.9225 6.38533 25.4271 6.59165 24.9101 6.59328Z" fill="#747474"/>
</g>
</svg>
