<svg preserveAspectRatio="none" width="100%" height="100%" overflow="visible" style="display: block;" viewBox="0 0 20 20" fill="none" xmlns="http://www.w3.org/2000/svg">
<g id="Group">
<path id="Subtract" d="M16 0C18.2091 0 20 1.79086 20 4V16C20 18.2091 18.2091 20 16 20H4C1.79086 20 3.22133e-08 18.2091 0 16V4C0 1.79086 1.79086 3.22128e-08 4 0H16ZM9.52246 3C9.26008 3.00015 9.0459 3.21513 9.0459 3.47754V8.72754C9.04575 8.90296 8.90296 9.04575 8.72754 9.0459H3.47754C3.21513 9.0459 3.00015 9.26008 3 9.52246V10.4775C3.00014 10.7409 3.21417 10.9541 3.47754 10.9541H8.72754C8.90296 10.9542 9.04575 11.097 9.0459 11.2725V16.5225C9.0459 16.7858 9.25913 16.9999 9.52246 17H10.4775C10.7409 16.9999 10.9541 16.7858 10.9541 16.5225V11.2725C10.9542 11.097 11.097 10.9542 11.2725 10.9541H16.5225C16.7858 10.9541 16.9999 10.7409 17 10.4775V9.52246C16.9999 9.26008 16.7849 9.0459 16.5225 9.0459H11.2725C11.097 9.04575 10.9542 8.90296 10.9541 8.72754V3.47754C10.9541 3.21417 10.7409 3.00014 10.4775 3H9.52246Z" fill="var(--fill-0, #747474)"/>
</g>
</svg>
