<svg preserveAspectRatio="none" width="100%" height="100%" overflow="visible" style="display: block;" viewBox="0 0 41 22" fill="none" xmlns="http://www.w3.org/2000/svg">
<g id="Group">
<path id="Vector" d="M37 0.75C38.7949 0.75 40.25 2.20507 40.25 4V18C40.25 19.7949 38.7949 21.25 37 21.25H21.75V0.75H37Z" fill="var(--fill-0, white)" stroke="var(--stroke-0, #747474)" stroke-width="1.5"/>
<path id="Vector_2" d="M4 0.75H21.25V21.25H4C2.20507 21.25 0.75 19.7949 0.75 18V4C0.75 2.20507 2.20507 0.75 4 0.75Z" fill="var(--fill-0, white)" stroke="var(--stroke-0, #747474)" stroke-width="1.5"/>
<path id="Vector_3" fill-rule="evenodd" clip-rule="evenodd" d="M26.3427 8H35.6713C35.9348 8 36.1193 8.325 35.9084 8.55L31.3496 13.85C31.1915 14.05 30.8489 14.05 30.6908 13.85L26.0792 8.55C25.8948 8.325 26.0529 8 26.3427 8V8Z" fill="var(--fill-0, #747474)"/>
<path id="Vector_4" fill-rule="evenodd" clip-rule="evenodd" d="M8.16758 8.05765C8.30128 8.03517 8.41813 7.94526 8.47768 7.82162L10.6304 3.23602C10.782 2.92133 11.218 2.92133 11.3696 3.23602L13.5223 7.82162C13.5819 7.94526 13.6987 8.03517 13.8324 8.05765L18.6467 8.7882C18.9849 8.83315 19.1197 9.27148 18.8748 9.51875L15.3919 13.0816C15.2941 13.1827 15.2503 13.3288 15.2728 13.4637L16.0952 18.4989C16.1525 18.8473 15.7997 19.117 15.4975 18.9484L11.1921 16.577C11.0719 16.5095 10.9281 16.5095 10.8079 16.577L6.50251 18.9484C6.20028 19.117 5.84749 18.8473 5.90479 18.4989L6.72722 13.4637C6.74969 13.3288 6.70587 13.1827 6.60812 13.0816L3.12518 9.51875C2.88025 9.27148 3.01507 8.83315 3.35326 8.7882L8.16758 8.05765Z" fill="var(--fill-0, #747474)"/>
</g>
</svg>
