<svg preserveAspectRatio="none" width="100%" height="100%" overflow="visible" style="display: block;" viewBox="0 0 18.3573 20" fill="none" xmlns="http://www.w3.org/2000/svg">
<g id="Group">
<path id="Exclude" fill-rule="evenodd" clip-rule="evenodd" d="M17.8505 12.6667L16.3089 11.375C16.3922 10.9167 16.4339 10.4167 16.4339 9.95833C16.4339 9.5 16.3922 9 16.3089 8.54167L17.8505 7.25C18.3505 6.83333 18.5172 6.08333 18.1839 5.5L17.5172 4.29167C17.2672 3.875 16.8089 3.625 16.3089 3.625C16.1422 3.625 15.9755 3.66667 15.8505 3.70833L13.9755 4.41667C13.2255 3.75 12.3922 3.29167 11.5589 3L11.2255 1.04167C11.1005 0.375 10.5172 0 9.85054 0H8.51721C7.85054 0 7.26721 0.375 7.14221 1.04167L6.80887 2.95833C5.89221 3.25 5.10054 3.75 4.35054 4.375L2.51721 3.66667C2.35054 3.625 2.22554 3.58333 2.05887 3.58333C1.55887 3.58333 1.10054 3.83333 0.85054 4.25L0.183873 5.41667C-0.14946 6 -0.0244603 6.75 0.517206 7.16667L2.05887 8.45833C1.97554 8.91667 1.93387 9.41667 1.93387 9.875C1.93387 10.375 1.97554 10.8333 2.05887 11.2917L0.517206 12.5833C0.0172064 13 -0.14946 13.75 0.183873 14.3333L0.85054 15.5833C1.10054 16 1.55887 16.25 2.05887 16.25C2.22554 16.25 2.39221 16.2083 2.51721 16.1667L4.39221 15.4583C5.14221 16.125 5.97554 16.5833 6.80887 16.875L7.14221 18.875C7.26721 19.5417 7.80887 20 8.51721 20H9.85054C10.5172 20 11.1005 19.5 11.2255 18.8333L11.5589 16.8333C12.5172 16.5 13.3505 16 14.1005 15.2917L15.8505 16C16.0172 16.0417 16.1839 16.0833 16.3505 16.0833C16.8505 16.0833 17.3089 15.8333 17.5589 15.4167L18.1839 14.3333C18.5172 13.8333 18.3505 13.0833 17.8505 12.6667V12.6667ZM9.22554 14.625C6.72554 14.625 4.68387 12.5833 4.68387 10.0417C4.68387 7.5 6.68387 5.45833 9.22554 5.45833C11.7672 5.45833 13.7672 7.5 13.7672 10.0417C13.7672 12.5833 11.7255 14.625 9.22554 14.625V14.625Z" fill="var(--fill-0, #747474)"/>
<path id="Vector" fill-rule="evenodd" clip-rule="evenodd" d="M10.4339 6.66667H8.51721C8.22554 6.66667 7.97554 6.83333 7.89221 7.08333L6.72554 10.0833C6.64221 10.2917 6.80887 10.5417 7.05887 10.5417H9.01721L8.30887 13.0417C8.22554 13.2917 8.51721 13.4167 8.68387 13.25L11.6422 9.79167C11.8505 9.58333 11.6839 9.25 11.3922 9.25H9.93387L11.2255 7.20833C11.3505 7 11.1839 6.70833 10.9339 6.70833H10.4339V6.66667Z" fill="var(--fill-0, #747474)"/>
</g>
</svg>
