<svg preserveAspectRatio="none" width="100%" height="100%" overflow="visible" style="display: block;" viewBox="0 0 20 20" fill="none" xmlns="http://www.w3.org/2000/svg">
<g id="Group">
<path id="Vector" fill-rule="evenodd" clip-rule="evenodd" d="M18.3333 12.9167H18.1104C17.3129 12.9167 16.6667 12.2705 16.6667 11.473V6.66674C16.6667 2.87799 13.5062 -0.172423 9.6775 0.00757703C6.09208 0.176327 3.33333 3.26549 3.33333 6.85508V11.473C3.33333 12.2705 2.68708 12.9167 1.88958 12.9167H1.66667C0.74625 12.9167 0 13.663 0 14.5834V15.2084C0 15.5534 0.28 15.8334 0.625 15.8334H19.375C19.72 15.8334 20 15.5534 20 15.2084V14.5834C20 13.663 19.2538 12.9167 18.3333 12.9167" fill="var(--fill-0, #747474)"/>
<path id="Vector_2" fill-rule="evenodd" clip-rule="evenodd" d="M12.0021 17.5H7.9204C7.66499 17.5 7.45874 17.7296 7.50707 17.98C7.73124 19.1308 8.74457 20 9.96124 20C11.1779 20 12.1912 19.1308 12.4154 17.98C12.4637 17.7296 12.2575 17.5 12.0021 17.5" fill="var(--fill-0, #747474)"/>
</g>
</svg>
