<svg preserveAspectRatio="none" width="100%" height="100%" overflow="visible" style="display: block;" viewBox="0 0 29.5385 24.6154" fill="none" xmlns="http://www.w3.org/2000/svg">
<path id="Icon" fill-rule="evenodd" clip-rule="evenodd" d="M29.5385 2.46154C29.5385 1.10769 28.4308 0 27.0769 0H2.46154C1.10769 0 0 1.10769 0 2.46154V22.1538C0 23.5077 1.10769 24.6154 2.46154 24.6154H27.0769C28.4308 24.6154 29.5385 23.5077 29.5385 22.1538V2.46154ZM23.1384 19.6918H5.29228C4.55382 19.6918 4.12305 18.8918 4.49228 18.2765L9.90767 8.86107C10.1538 8.4303 10.7077 8.4303 10.9538 8.86107L14.2154 14.4611C14.4615 14.8303 15.0154 14.8918 15.2615 14.5226L17.9077 10.7072C18.1538 10.338 18.7077 10.338 18.9538 10.7072L23.8154 18.4611C24.1846 19.0149 23.8154 19.6918 23.1384 19.6918ZM21.5384 8.61543C20.1846 8.61543 19.0769 7.50774 19.0769 6.15389C19.0769 4.80005 20.1846 3.69235 21.5384 3.69235C22.8923 3.69235 24 4.80005 24 6.15389C24 7.50774 22.8923 8.61543 21.5384 8.61543Z" fill="var(--fill-0, #747474)"/>
</svg>
