<svg width="50" height="39" viewBox="0 0 50 39" fill="none" xmlns="http://www.w3.org/2000/svg">
<rect y="3.40625" width="35.0591" height="35.0591" rx="17.5295" fill="#5867E8"/>
<path d="M27.2381 21.2984C27.2786 20.6107 26.7527 20.4084 26.5504 20.4084H19.2689C18.6217 20.4084 18.5408 21.0961 18.5408 21.1366V29.0249H27.2381V21.2984ZM22.222 26.9618C22.222 27.3258 21.9388 27.6495 21.5343 27.6495H20.8466C20.4825 27.6495 20.1589 27.3258 20.1589 26.9618V26.2741C20.1589 25.91 20.4421 25.5864 20.8466 25.5864H21.5343C21.8984 25.5864 22.222 25.91 22.222 26.2741V26.9618ZM22.222 23.5233C22.222 23.8874 21.9388 24.211 21.5343 24.211H20.8466C20.4825 24.211 20.1589 23.8874 20.1589 23.5233V22.8356C20.1589 22.4715 20.4421 22.1479 20.8466 22.1479H21.5343C21.8984 22.1479 22.222 22.4715 22.222 22.8356V23.5233ZM25.5796 26.9618C25.5796 27.3258 25.2964 27.6495 24.8919 27.6495H24.2042C23.8401 27.6495 23.5165 27.3258 23.5165 26.9618V26.2741C23.5165 25.91 23.7997 25.5864 24.2042 25.5864H24.8919C25.2559 25.5864 25.5796 25.91 25.5796 26.2741V26.9618ZM25.5796 23.5233C25.5796 23.8874 25.2964 24.211 24.8919 24.211H24.2042C23.8401 24.211 23.5165 23.8874 23.5165 23.5233V22.8356C23.5165 22.4715 23.7997 22.1479 24.2042 22.1479H24.8919C25.2559 22.1479 25.5796 22.4715 25.5796 22.8356V23.5233ZM20.523 17.6576V13.7337C20.5634 13.046 20.078 12.8438 19.8757 12.8438H8.54895C7.90171 12.8438 7.8208 13.5314 7.8208 13.5719V29.0249H16.5181V19.1544C16.5181 19.1544 16.5181 18.3453 17.2463 18.3453H19.8757C20.2803 18.3453 20.523 17.9408 20.523 17.6576ZM11.502 26.6381C11.502 27.0022 11.2188 27.3258 10.8143 27.3258H10.1671C9.80299 27.3258 9.47936 27.0022 9.47936 26.6381V25.9505C9.47936 25.5864 9.76253 25.2628 10.1671 25.2628H10.8548C11.2188 25.2628 11.5425 25.5864 11.5425 25.9505V26.6381H11.502ZM11.502 23.1592C11.502 23.5233 11.2188 23.8469 10.8143 23.8469H10.1671C9.80299 23.8469 9.47936 23.5233 9.47936 23.1592V22.4715C9.47936 22.1074 9.76253 21.7838 10.1671 21.7838H10.8548C11.2188 21.7838 11.5425 22.1074 11.5425 22.4715V23.1592H11.502ZM11.502 19.7207C11.502 20.0848 11.2188 20.4084 10.8143 20.4084H10.1671C9.80299 20.4084 9.47936 20.0848 9.47936 19.7207V19.033C9.47936 18.669 9.76253 18.3453 10.1671 18.3453H10.8548C11.2188 18.3453 11.5425 18.669 11.5425 19.033V19.7207H11.502ZM11.502 16.2822C11.502 16.6463 11.2188 16.9699 10.8143 16.9699H10.1671C9.80299 16.9699 9.47936 16.6463 9.47936 16.2822V15.5945C9.47936 15.2305 9.76253 14.9068 10.1671 14.9068H10.8548C11.2188 14.9068 11.5425 15.2305 11.5425 15.5945V16.2822H11.502ZM15.1832 26.6381C15.1832 27.0022 14.9 27.3258 14.4955 27.3258H13.8078C13.4437 27.3258 13.1201 27.0022 13.1201 26.6381V25.9505C13.1201 25.5864 13.4033 25.2628 13.8078 25.2628H14.4955C14.8596 25.2628 15.1832 25.5864 15.1832 25.9505V26.6381ZM15.1832 23.1592C15.1832 23.5233 14.9 23.8469 14.4955 23.8469H13.8078C13.4437 23.8469 13.1201 23.5233 13.1201 23.1592V22.4715C13.1201 22.1074 13.4033 21.7838 13.8078 21.7838H14.4955C14.8596 21.7838 15.1832 22.1074 15.1832 22.4715V23.1592ZM15.1832 19.7207C15.1832 20.0848 14.9 20.4084 14.4955 20.4084H13.8078C13.4437 20.4084 13.1201 20.0848 13.1201 19.7207V19.033C13.1201 18.669 13.4033 18.3453 13.8078 18.3453H14.4955C14.8596 18.3453 15.1832 18.669 15.1832 19.033V19.7207ZM15.1832 16.2822C15.1832 16.6463 14.9 16.9699 14.4955 16.9699H13.8078C13.4437 16.9699 13.1201 16.6463 13.1201 16.2822V15.5945C13.1201 15.2305 13.4033 14.9068 13.8078 14.9068H14.4955C14.8596 14.9068 15.1832 15.2305 15.1832 15.5945V16.2822ZM18.8644 16.2822C18.8644 16.6463 18.5812 16.9699 18.1767 16.9699H17.5295C17.1654 16.9699 16.8418 16.6463 16.8418 16.2822V15.5945C16.8418 15.2305 17.1249 14.9068 17.5295 14.9068H18.2172C18.5812 14.9068 18.9049 15.2305 18.9049 15.5945V16.2822H18.8644Z" fill="white"/>
<g transform="translate(31.203 9.703) scale(1.48) translate(-31.203 -9.703)">
<rect x="22" y="0.5" width="18.406" height="18.406" rx="9.20301" fill="#FFFFFF" stroke="#0250D9" stroke-width="1.35"/>
<path d="M35.9179 5.03125H26.4883C26.191 5.03125 26.0211 5.39229 26.2123 5.62591L30.3536 10.4469C30.481 10.5955 30.566 10.8079 30.566 10.999V14.0573C30.566 14.2272 30.7146 14.3758 30.8845 14.3758H31.5217C31.6916 14.3758 31.8402 14.2272 31.8402 14.0573V10.999C31.8402 10.7867 31.904 10.5955 32.0526 10.4469L36.194 5.62591C36.3851 5.39229 36.2365 5.03125 35.9179 5.03125Z" fill="#0250D9"/>
</g>
</svg>
