<svg width="32" height="32" viewBox="0 0 32 32" fill="none" xmlns="http://www.w3.org/2000/svg">
<path d="M27.8154 17.9693H22.4C21.6215 17.9535 20.8793 17.6373 20.3287 17.0867C19.7781 16.5361 19.4619 15.7939 19.4462 15.0154C19.6923 10.6462 21.7231 10.4 21.9077 7.56927C22.0311 6.15728 21.6373 4.74855 20.7996 3.60522C19.9619 2.46189 18.7374 1.66182 17.3539 1.35388C16.4849 1.16117 15.5839 1.16521 14.7168 1.3657C13.8496 1.56619 13.0382 1.95806 12.3421 2.51261C11.6459 3.06717 11.0826 3.77039 10.6934 4.57078C10.3041 5.37118 10.0987 6.24849 10.0923 7.1385C10.0923 10.4 12.3077 10.4 12.5539 15.0154C12.5539 16.6154 11.2 17.9693 9.60001 17.9693H4.18462C3.40121 17.9693 2.64989 18.2805 2.09594 18.8344C1.54198 19.3884 1.23077 20.1397 1.23077 20.9231V22.8923C1.23077 23.4462 1.66154 23.877 2.21539 23.877H29.7846C30.3385 23.877 30.7692 23.4462 30.7692 22.8923V20.9231C30.7692 19.2616 29.4154 17.9693 27.8154 17.9693ZM27.8769 26.8308H4.12308C3.56924 26.8308 3.2 27.2616 3.2 27.7539V27.8154C3.2 29.4154 4.55385 30.7693 6.15385 30.7693H25.9077C27.5077 30.7693 28.8 29.4154 28.8 27.8154V27.7539C28.8 27.2616 28.3692 26.8308 27.8769 26.8308Z" fill="#747474"/>
</svg>
