<svg width="50" height="41" viewBox="0 0 50 41" fill="none" xmlns="http://www.w3.org/2000/svg">
<rect y="5.40625" width="35.0591" height="35.0591" rx="17.5295" fill="#396547"/>
<path d="M21.6664 15.7135L24.7867 18.8338C25.4879 19.4999 25.4879 20.6218 24.7867 21.2879L16.653 29.3866V18.2378L19.1772 15.6785C19.3425 15.5164 19.5382 15.3887 19.7531 15.3027C19.9679 15.2167 20.1977 15.1741 20.4291 15.1774C20.6605 15.1807 20.889 15.2297 21.1014 15.3217C21.3137 15.4137 21.5058 15.5469 21.6664 15.7135ZM13.1471 12.418H8.76467C8.29976 12.418 7.85389 12.6027 7.52515 12.9314C7.1964 13.2601 7.01172 13.706 7.01172 14.1709V29.5268C7.01172 30.0425 7.11328 30.553 7.31061 31.0294C7.50795 31.5058 7.79718 31.9387 8.1618 32.3033C8.52642 32.668 8.95929 32.9572 9.43568 33.1545C9.91208 33.3519 10.4227 33.4534 10.9383 33.4534C11.454 33.4534 11.9646 33.3519 12.441 33.1545C12.9174 32.9572 13.3503 32.668 13.7149 32.3033C14.0795 31.9387 14.3687 31.5058 14.5661 31.0294C14.7634 30.553 14.865 30.0425 14.865 29.5268V14.1709C14.9 13.1893 14.0937 12.418 13.1471 12.418ZM10.9383 31.2798C9.95668 31.2798 9.18538 30.5085 9.18538 29.5268C9.18538 28.5451 9.95668 27.7738 10.9383 27.7738C11.92 27.7738 12.6913 28.5451 12.6913 29.5268C12.6913 30.5085 11.92 31.2798 10.9383 31.2798ZM26.2942 25.5651H23.209L21.1055 27.6687H25.9436L25.9086 31.3499H17.4593L15.3558 33.4534H26.2942C26.7591 33.4534 27.205 33.2687 27.5337 32.94C27.8625 32.6112 28.0472 32.1654 28.0472 31.7005V27.3181C28.0472 26.8532 27.8625 26.4073 27.5337 26.0786C27.205 25.7498 26.7591 25.5651 26.2942 25.5651Z" fill="white"/>
<g transform="translate(33.203 9.703) scale(1.48) translate(-33.203 -9.703)">
<rect x="24" y="0.5" width="18.406" height="18.406" rx="9.20301" fill="#FFFFFF" stroke="#0250D9" stroke-width="1.35"/>
<path d="M37.9179 5.03125H28.4883C28.191 5.03125 28.0211 5.39229 28.2123 5.62591L32.3536 10.4469C32.481 10.5955 32.566 10.8079 32.566 10.999V14.0573C32.566 14.2272 32.7146 14.3758 32.8845 14.3758H33.5217C33.6916 14.3758 33.8402 14.2272 33.8402 14.0573V10.999C33.8402 10.7867 33.904 10.5955 34.0526 10.4469L38.194 5.62591C38.3851 5.39229 38.2365 5.03125 37.9179 5.03125Z" fill="#0250D9"/>
</g>
</svg>
