<svg width="24" height="24" viewBox="0 0 24 24" fill="none" xmlns="http://www.w3.org/2000/svg">
<g clip-path="url(#clip0_2078_22252)">
<rect width="24" height="24" rx="4" fill="#396547"/>
<path d="M14.8318 7.05678L16.9678 9.19278C17.4478 9.64878 17.4478 10.4168 16.9678 10.8728L11.3998 16.4168V8.78478L13.1278 7.03278C13.2409 6.92186 13.3749 6.83445 13.522 6.77558C13.6691 6.7167 13.8264 6.68754 13.9848 6.68977C14.1432 6.692 14.2996 6.72558 14.445 6.78858C14.5904 6.85157 14.7218 6.94272 14.8318 7.05678ZM8.9998 4.80078H5.9998C5.68154 4.80078 5.37632 4.92721 5.15128 5.15225C4.92623 5.3773 4.7998 5.68252 4.7998 6.00078V16.5128C4.7998 16.8658 4.86933 17.2153 5.00442 17.5414C5.1395 17.8676 5.3375 18.1639 5.5871 18.4135C5.83671 18.6631 6.13303 18.8611 6.45915 18.9962C6.78527 19.1313 7.13481 19.2008 7.4878 19.2008C7.8408 19.2008 8.19033 19.1313 8.51646 18.9962C8.84258 18.8611 9.1389 18.6631 9.38851 18.4135C9.63811 18.1639 9.83611 17.8676 9.97119 17.5414C10.1063 17.2153 10.1758 16.8658 10.1758 16.5128V6.00078C10.1998 5.32878 9.6478 4.80078 8.9998 4.80078ZM7.4878 17.7128C6.8158 17.7128 6.2878 17.1848 6.2878 16.5128C6.2878 15.8408 6.8158 15.3128 7.4878 15.3128C8.1598 15.3128 8.6878 15.8408 8.6878 16.5128C8.6878 17.1848 8.1598 17.7128 7.4878 17.7128ZM17.9998 13.8008H15.8878L14.4478 15.2408H17.7598L17.7358 17.7608H11.9518L10.5118 19.2008H17.9998C18.3181 19.2008 18.6233 19.0744 18.8483 18.8493C19.0734 18.6243 19.1998 18.319 19.1998 18.0008V15.0008C19.1998 14.6825 19.0734 14.3773 18.8483 14.1523C18.6233 13.9272 18.3181 13.8008 17.9998 13.8008Z" fill="white"/>
</g>
<defs>
<clipPath id="clip0_2078_22252">
<rect width="24" height="24" rx="12" fill="white"/>
</clipPath>
</defs>
</svg>
