<svg width="40" height="40" viewBox="0 0 40 40" fill="none" xmlns="http://www.w3.org/2000/svg">
<rect width="40" height="40" rx="20" fill="#747474"/>
<path d="M30.1076 11.183L21.1076 12.4753V25.1676C21.1076 25.3983 20.9692 25.5368 20.7384 25.5368H19.2615C19.0307 25.5368 18.8922 25.3983 18.8922 25.1676V12.8445L10.2153 14.1368H10.0769C9.52301 14.1368 9.06148 13.7214 8.96917 13.1676C8.87686 12.5676 9.29225 11.9676 9.84609 11.9214L16.723 10.906C16.989 10.3988 17.3707 9.96133 17.8373 9.62912C18.3039 9.29691 18.8421 9.07929 19.4085 8.99389C19.9748 8.90848 20.5533 8.95771 21.0971 9.13756C21.6409 9.31742 22.1347 9.62285 22.5384 10.0291L29.7846 9.01372C30.3846 8.92142 30.9846 9.3368 31.0307 9.9368C31.123 10.4906 30.7538 11.0445 30.1076 11.183ZM16.8153 24.7522C17.0922 24.4291 17.1384 24.0137 16.9538 23.5983L13.9999 16.6291C13.8615 16.2137 13.4461 15.983 12.9846 15.983C12.523 15.983 12.1538 16.2137 11.9692 16.6291L9.01532 23.6445C8.87686 23.9676 8.92301 24.3368 9.10763 24.6599C9.19994 24.7522 10.6307 26.9676 12.9384 26.9676C14.2769 26.9676 15.6153 26.2291 16.8153 24.7522ZM12.9846 19.906L14.5538 23.6906H11.4153L12.9846 19.906ZM28.0307 14.4137C27.8461 13.9983 27.4307 13.7676 27.0153 13.7676C26.5538 13.7676 26.1846 14.0445 25.9999 14.4137L23.0461 21.4291C22.9076 21.7522 22.9538 22.1214 23.1384 22.4445C23.2307 22.5368 24.6615 24.7522 26.9692 24.7522C28.3538 24.7522 29.6461 24.0137 30.8461 22.5368C31.123 22.2137 31.1692 21.7983 30.9846 21.383L28.0307 14.4137ZM27.0153 17.6906L28.5846 21.4753H25.3999L27.0153 17.6906ZM19.9999 27.7522C17.923 27.7522 15.8461 28.4906 14.3692 29.7368C14.2307 29.8753 14.0922 30.0599 14.0922 30.2906V30.3368C14.0922 30.7522 14.4153 31.0753 14.8307 31.0753H25.1692C25.5846 31.0753 25.9076 30.7522 25.9076 30.3368V30.2906C25.9076 30.0753 25.8153 29.8906 25.6307 29.7368C24.1538 28.4906 22.0769 27.7522 19.9999 27.7522Z" fill="white"/>
</svg>
