<svg width="52" height="45" viewBox="0 0 52 45" fill="none" xmlns="http://www.w3.org/2000/svg">
<rect y="4.5" width="40" height="40" rx="20" fill="#747474"/>
<path d="M30.1076 15.683L21.1076 16.9753V29.6676C21.1076 29.8983 20.9692 30.0368 20.7384 30.0368H19.2615C19.0307 30.0368 18.8922 29.8983 18.8922 29.6676V17.3445L10.2153 18.6368H10.0769C9.52301 18.6368 9.06148 18.2214 8.96917 17.6676C8.87686 17.0676 9.29225 16.4676 9.84609 16.4214L16.723 15.406C16.989 14.8988 17.3707 14.4613 17.8373 14.1291C18.3039 13.7969 18.8421 13.5793 19.4085 13.4939C19.9748 13.4085 20.5533 13.4577 21.0971 13.6376C21.6409 13.8174 22.1347 14.1228 22.5384 14.5291L29.7846 13.5137C30.3846 13.4214 30.9846 13.8368 31.0307 14.4368C31.123 14.9906 30.7538 15.5445 30.1076 15.683ZM16.8153 29.2522C17.0922 28.9291 17.1384 28.5137 16.9538 28.0983L13.9999 21.1291C13.8615 20.7137 13.4461 20.483 12.9846 20.483C12.523 20.483 12.1538 20.7137 11.9692 21.1291L9.01532 28.1445C8.87686 28.4676 8.92301 28.8368 9.10763 29.1599C9.19994 29.2522 10.6307 31.4676 12.9384 31.4676C14.2769 31.4676 15.6153 30.7291 16.8153 29.2522ZM12.9846 24.406L14.5538 28.1906H11.4153L12.9846 24.406ZM28.0307 18.9137C27.8461 18.4983 27.4307 18.2676 27.0153 18.2676C26.5538 18.2676 26.1846 18.5445 25.9999 18.9137L23.0461 25.9291C22.9076 26.2522 22.9538 26.6214 23.1384 26.9445C23.2307 27.0368 24.6615 29.2522 26.9692 29.2522C28.3538 29.2522 29.6461 28.5137 30.8461 27.0368C31.123 26.7137 31.1692 26.2983 30.9846 25.883L28.0307 18.9137ZM27.0153 22.1906L28.5846 25.9753H25.3999L27.0153 22.1906ZM19.9999 32.2522C17.923 32.2522 15.8461 32.9906 14.3692 34.2368C14.2307 34.3753 14.0922 34.5599 14.0922 34.7906V34.8368C14.0922 35.2522 14.4153 35.5753 14.8307 35.5753H25.1692C25.5846 35.5753 25.9076 35.2522 25.9076 34.8368V34.7906C25.9076 34.5753 25.8153 34.3906 25.6307 34.2368C24.1538 32.9906 22.0769 32.2522 19.9999 32.2522Z" fill="white"/>
<g transform="translate(34.203 9.703) scale(1.48) translate(-34.203 -9.703)">
<rect x="25" y="0.5" width="18.406" height="18.406" rx="9.20301" fill="#FFFFFF" stroke="#0250D9" stroke-width="1.35"/>
<path d="M38.9179 5.03125H29.4883C29.191 5.03125 29.0211 5.39229 29.2123 5.62591L33.3536 10.4469C33.481 10.5955 33.566 10.8079 33.566 10.999V14.0573C33.566 14.2272 33.7146 14.3758 33.8845 14.3758H34.5217C34.6916 14.3758 34.8402 14.2272 34.8402 14.0573V10.999C34.8402 10.7867 34.904 10.5955 35.0526 10.4469L39.194 5.62591C39.3851 5.39229 39.2365 5.03125 38.9179 5.03125Z" fill="#0250D9"/>
</g>
</svg>
