<svg width="24" height="24" viewBox="0 0 24 24" fill="none" xmlns="http://www.w3.org/2000/svg">
<rect width="24" height="24" rx="12" fill="#5867E8"/>
<path d="M18.6463 12.2486C18.674 11.7779 18.314 11.6394 18.1755 11.6394H13.1909C12.7479 11.6394 12.6925 12.1102 12.6925 12.1379V17.5379H18.6463V12.2486ZM15.2125 16.1256C15.2125 16.3748 15.0186 16.5963 14.7417 16.5963H14.2709C14.0217 16.5963 13.8002 16.3748 13.8002 16.1256V15.6548C13.8002 15.4056 13.994 15.184 14.2709 15.184H14.7417C14.9909 15.184 15.2125 15.4056 15.2125 15.6548V16.1256ZM15.2125 13.7717C15.2125 14.0209 15.0186 14.2425 14.7417 14.2425H14.2709C14.0217 14.2425 13.8002 14.0209 13.8002 13.7717V13.3009C13.8002 13.0517 13.994 12.8302 14.2709 12.8302H14.7417C14.9909 12.8302 15.2125 13.0517 15.2125 13.3009V13.7717ZM17.5109 16.1256C17.5109 16.3748 17.3171 16.5963 17.0402 16.5963H16.5694C16.3202 16.5963 16.0986 16.3748 16.0986 16.1256V15.6548C16.0986 15.4056 16.2925 15.184 16.5694 15.184H17.0402C17.2894 15.184 17.5109 15.4056 17.5109 15.6548V16.1256ZM17.5109 13.7717C17.5109 14.0209 17.3171 14.2425 17.0402 14.2425H16.5694C16.3202 14.2425 16.0986 14.0209 16.0986 13.7717V13.3009C16.0986 13.0517 16.2925 12.8302 16.5694 12.8302H17.0402C17.2894 12.8302 17.5109 13.0517 17.5109 13.3009V13.7717ZM14.0494 9.75632V7.07017C14.0771 6.5994 13.7448 6.46094 13.6063 6.46094H5.85247C5.40939 6.46094 5.354 6.93171 5.354 6.9594V17.5379H11.3079V10.7809C11.3079 10.7809 11.3079 10.2271 11.8063 10.2271H13.6063C13.8832 10.2271 14.0494 9.95017 14.0494 9.75632ZM7.874 15.904C7.874 16.1532 7.68016 16.3748 7.40323 16.3748H6.96016C6.71093 16.3748 6.48939 16.1532 6.48939 15.904V15.4332C6.48939 15.184 6.68323 14.9625 6.96016 14.9625H7.43093C7.68016 14.9625 7.9017 15.184 7.9017 15.4332V15.904H7.874ZM7.874 13.5225C7.874 13.7717 7.68016 13.9932 7.40323 13.9932H6.96016C6.71093 13.9932 6.48939 13.7717 6.48939 13.5225V13.0517C6.48939 12.8025 6.68323 12.5809 6.96016 12.5809H7.43093C7.68016 12.5809 7.9017 12.8025 7.9017 13.0517V13.5225H7.874ZM7.874 11.1686C7.874 11.4179 7.68016 11.6394 7.40323 11.6394H6.96016C6.71093 11.6394 6.48939 11.4179 6.48939 11.1686V10.6979C6.48939 10.4486 6.68323 10.2271 6.96016 10.2271H7.43093C7.68016 10.2271 7.9017 10.4486 7.9017 10.6979V11.1686H7.874ZM7.874 8.81478C7.874 9.06401 7.68016 9.28555 7.40323 9.28555H6.96016C6.71093 9.28555 6.48939 9.06401 6.48939 8.81478V8.34401C6.48939 8.09478 6.68323 7.87325 6.96016 7.87325H7.43093C7.68016 7.87325 7.9017 8.09478 7.9017 8.34401V8.81478H7.874ZM10.394 15.904C10.394 16.1532 10.2002 16.3748 9.92323 16.3748H9.45247C9.20324 16.3748 8.9817 16.1532 8.9817 15.904V15.4332C8.9817 15.184 9.17554 14.9625 9.45247 14.9625H9.92323C10.1725 14.9625 10.394 15.184 10.394 15.4332V15.904ZM10.394 13.5225C10.394 13.7717 10.2002 13.9932 9.92323 13.9932H9.45247C9.20324 13.9932 8.9817 13.7717 8.9817 13.5225V13.0517C8.9817 12.8025 9.17554 12.5809 9.45247 12.5809H9.92323C10.1725 12.5809 10.394 12.8025 10.394 13.0517V13.5225ZM10.394 11.1686C10.394 11.4179 10.2002 11.6394 9.92323 11.6394H9.45247C9.20324 11.6394 8.9817 11.4179 8.9817 11.1686V10.6979C8.9817 10.4486 9.17554 10.2271 9.45247 10.2271H9.92323C10.1725 10.2271 10.394 10.4486 10.394 10.6979V11.1686ZM10.394 8.81478C10.394 9.06401 10.2002 9.28555 9.92323 9.28555H9.45247C9.20324 9.28555 8.9817 9.06401 8.9817 8.81478V8.34401C8.9817 8.09478 9.17554 7.87325 9.45247 7.87325H9.92323C10.1725 7.87325 10.394 8.09478 10.394 8.34401V8.81478ZM12.914 8.81478C12.914 9.06401 12.7202 9.28555 12.4432 9.28555H12.0002C11.7509 9.28555 11.5294 9.06401 11.5294 8.81478V8.34401C11.5294 8.09478 11.7232 7.87325 12.0002 7.87325H12.4709C12.7202 7.87325 12.9417 8.09478 12.9417 8.34401V8.81478H12.914Z" fill="white"/>
</svg>
