<svg width="24" height="24" viewBox="0 0 24 24" fill="none" xmlns="http://www.w3.org/2000/svg">
<g clip-path="url(#clip0_2078_22246)">
<rect width="24" height="24" rx="4" fill="#9050E9"/>
<path d="M5.2798 15.8408H6.4798C6.7438 15.8408 6.9598 15.6248 6.9598 15.3608V7.92078C6.9598 7.65678 6.7438 7.44078 6.4798 7.44078H5.2798C5.0158 7.44078 4.7998 7.65678 4.7998 7.92078V15.3608C4.7998 15.6248 5.0158 15.8408 5.2798 15.8408ZM18.7198 7.44078H17.5198C17.2558 7.44078 17.0398 7.65678 17.0398 7.92078V15.3608C17.0398 15.6248 17.2558 15.8408 17.5198 15.8408H18.7198C18.9838 15.8408 19.1998 15.6248 19.1998 15.3608V7.92078C19.1998 7.65678 18.9838 7.44078 18.7198 7.44078ZM12.7198 15.8408C12.9838 15.8408 13.1998 15.6248 13.1998 15.3608V7.92078C13.1998 7.65678 12.9838 7.44078 12.7198 7.44078H11.2798C11.0158 7.44078 10.7998 7.65678 10.7998 7.92078V15.3608C10.7998 15.6248 11.0158 15.8408 11.2798 15.8408H12.7198ZM15.5998 15.8408C15.8638 15.8408 16.0798 15.6248 16.0798 15.3608V7.92078C16.0798 7.65678 15.8638 7.44078 15.5998 7.44078H15.1198C14.8558 7.44078 14.6398 7.65678 14.6398 7.92078V15.3608C14.6398 15.6248 14.8558 15.8408 15.1198 15.8408H15.5998ZM9.3598 15.8408C9.6238 15.8408 9.8398 15.6248 9.8398 15.3608V7.92078C9.8398 7.65678 9.6238 7.44078 9.3598 7.44078H8.8798C8.6158 7.44078 8.3998 7.65678 8.3998 7.92078V15.3608C8.3998 15.6248 8.6158 15.8408 8.8798 15.8408H9.3598ZM18.7198 17.2808H5.2798C5.0158 17.2808 4.7998 17.4968 4.7998 17.7608V18.2408C4.7998 18.5048 5.0158 18.7208 5.2798 18.7208H18.7198C18.9838 18.7208 19.1998 18.5048 19.1998 18.2408V17.7608C19.1998 17.4968 18.9838 17.2808 18.7198 17.2808ZM18.7198 4.80078H5.2798C5.0158 4.80078 4.7998 5.01678 4.7998 5.28078V5.76078C4.7998 6.02478 5.0158 6.24078 5.2798 6.24078H18.7198C18.9838 6.24078 19.1998 6.02478 19.1998 5.76078V5.28078C19.1998 5.01678 18.9838 4.80078 18.7198 4.80078Z" fill="white"/>
</g>
<defs>
<clipPath id="clip0_2078_22246">
<rect width="24" height="24" rx="12" fill="white"/>
</clipPath>
</defs>
</svg>
