<svg width="32" height="32" viewBox="0 0 32 32" fill="none" xmlns="http://www.w3.org/2000/svg">
<path fill-rule="evenodd" clip-rule="evenodd" d="M16.923 9.84655C17.2922 9.47731 17.2922 8.92343 16.923 8.55419L9.9076 1.47695C9.53837 1.1077 8.98452 1.1077 8.61529 1.47695L1.5384 8.55419C1.16917 8.92343 1.16917 9.47731 1.5384 9.84655L2.8307 11.1389C3.19993 11.5082 3.75377 11.5082 4.123 11.1389L6.33838 8.92344C6.70761 8.55419 7.38453 8.80035 7.38453 9.35422V22.401C7.38453 22.8933 7.8153 23.3241 8.3076 23.3241H10.1537C10.6461 23.3241 11.0768 22.8318 11.0768 22.401V9.35422C11.0768 8.80035 11.7537 8.55419 12.123 8.92344L14.3383 11.1389C14.7076 11.5082 15.2614 11.5082 15.6307 11.1389L16.923 9.84655V9.84655ZM30.4617 22.1535L29.1694 20.9226C28.8001 20.5534 28.2463 20.5534 27.8771 20.9226L25.6617 23.1381C25.2924 23.5074 24.6155 23.2612 24.6155 22.7073V9.53752C24.6155 9.04519 24.1848 8.61441 23.6925 8.61441H21.8463C21.354 8.61441 20.9232 9.10674 20.9232 9.53752V22.5843C20.9232 23.1381 20.2463 23.3843 19.8771 23.015L17.6617 20.7996C17.2925 20.4303 16.7386 20.4303 16.3694 20.7996L15.0771 22.1535C14.7079 22.5227 14.7079 23.0766 15.0771 23.4458L22.154 30.5231C22.5232 30.8923 23.0771 30.8923 23.4463 30.5231L30.5232 23.4458C30.8309 23.0766 30.8309 22.4612 30.4617 22.1535V22.1535Z" fill="currentColor"/>
</svg>
